<?xml version="1.0" encoding="utf-8"?>
<!-- Generator: Adobe Illustrator 27.6.1, SVG Export Plug-In . SVG Version: 6.00 Build 0)  -->
<svg version="1.1" id="_图层_1" xmlns="http://www.w3.org/2000/svg" xmlns:xlink="http://www.w3.org/1999/xlink" x="0px" y="0px"
	 viewBox="0 0 391 391" style="enable-background:new 0 0 391 391;" xml:space="preserve">
<style type="text/css">
	.st0{fill:#FFFFFF;}
	.st1{fill:#FF80AB;}
	.st2{fill:#241916;}
	.st3{fill:#FF92B7;}
	.st4{fill:#FF8BB2;}
	.st5{fill:#FF87B0;}
	.st6{fill:#FF89B1;}
	.st7{fill:#FF88B0;}
	.st8{fill:#FF86AF;}
	.st9{fill:#FF8EB4;}
	.st10{fill:#FF83AD;}
	.st11{fill:#FF84AD;}
	.st12{fill:#FF85AE;}
	.st13{fill:#FFFBFC;}
</style>
<g>
	<path class="st0" d="M0,391C0,260.7,0,130.3,0,0c130.3,0,260.7,0,391,0c0,130.3,0,260.7,0,391C260.7,391,130.3,391,0,391z
		 M282.2,111.5c0.2,0.7,0.3,1.3,0.5,2c-0.1,0.2-0.1,0.3-0.2,0.5c0.3,0.1,0.7,0.3,1,0.4c2,3.6,4.3,7,5.9,10.8
		c2.7,6.4,5.1,12.9,7.4,19.5c1.1,3,1.6,6.2,2.3,9.4c0.1,0.2,0.2,0.3,0.3,0.5c0.5,2.2,1,4.3,1.5,6.5c-0.3,0.5-0.6,1-0.9,1.5
		c0.6,1.2,1.5,2.3,1.8,3.5c0.8,3.2,1.5,6.5,1.9,9.8c0.4,3.2-0.8,6.4,0.6,9.6c0.2,0.4-0.3,1-0.4,1.6c-0.2,0.7-0.3,1.4-0.5,2
		c0.5,0.3,0.9,0.7,1.4,1c0,5.5,0,11,0,16.5c-0.2,0.3-0.4,0.6-0.6,1c-0.9,2,1.3,4.7-1.4,6.3c0,0,0,0.2,0,0.2c0.2,1.7,0.4,3.4,0.7,5.1
		c-0.6,0.5-1.1,0.9-1.7,1.4c0.2,1,0.9,2,0.7,2.9c-1.5,5.9-3.1,11.7-4.7,17.6c-0.6,0.3-1.3,0.7-1.9,1c-0.1,0.2-0.1,0.3,0,0.5
		c0.1,0.3,0.3,0.7,0.4,1c-0.4,1.2-0.7,2.4-1.2,3.5c-4.7,9.7-10.4,18.5-18.3,26c-4.8,4.6-9.9,8.5-15.8,11.6c-2.5,1.3-4,2.8-4.7,5.5
		c-2.4,9.2-4.7,18.5-5,28.1c-0.1,4.3-0.3,8.6-0.4,12.9c0.4,0.3,0.7,0.6,1.1,0.9c1.2,2.7,2.4,5.4,3.7,8.1c0.4,0.5,0.8,1,1.2,1.5
		c2.3,2.2,4.6,4.4,7,6.5c0.5,0.4,1,0.9,1.5,1.3c1,0.7,2,1.4,2.9,2.2c0.2,0.1,0.4,0.3,0.5,0.4c2.9,2,5.7,4.2,8.7,6
		c6.2,3.5,12.5,6.8,18.8,10.1c0.2,0.1,0.3,0.3,0.5,0.4c4.3,1.3,8.6,2.5,12.9,3.8c2.6,0.8,4.1,0,5.5-2.3c1.3-2.3,0.1-4.3-0.4-6.4
		c-0.1-0.2-0.3-0.3-0.4-0.5c-0.2-0.7-0.4-1.4-0.6-2c-0.1-0.2-0.3-0.3-0.4-0.5c-0.7-2.2-1.5-4.4-2.2-6.5c-0.1-0.2-0.3-0.3-0.4-0.5
		c-0.7-2.3-1.4-4.7-2.2-7c-0.3-0.5-0.6-1-0.8-1.5c-0.7-4.1-1.8-8.1-1.9-12.2c-0.3-7-0.5-14,1.3-20.9c1.2-4.6,1.6-9.4,2.6-14.1
		c0.3-1.4,1.8-2.7,1.7-3.9c-0.4-4.9,1.6-9.3,2.6-14c0.5-2.6,2.1-5.1,2.1-7.6c-0.1-5,2.7-9.4,2.8-14.4c0.1-2.3,1.3-4.7,1.6-7.2
		c0.7-5,1.8-9.9,2.7-14.8c0.5-0.5,0.9-1,1.4-1.5c-0.4-1.1-1.3-2.3-1.1-3.3c0.7-3.6,2-7.1,2.6-10.7c1.1-7.1,1.7-14.2,2.7-21.3
		c0.5-3.1,0.2-6.3,1.2-9.5c1.2-4,0.9-8.5,1.2-12.8c0.2-0.3,0.4-0.6,0.6-1c-0.2-1.6-0.6-3.3-0.5-4.9c0.1-5,0.4-9.9,0.5-14.9
		c0-4.1-0.3-8.3-0.5-12.4c-0.1-2.3,1.5-4.7-0.5-6.8c-0.1-0.1,0-0.5,0-0.7c-0.5-5-0.6-10.2-1.7-15.1c-1.6-7.9-3.8-15.7-5.8-23.5
		c-2.8-10.8-8.1-20.5-14.4-29.6c-13-18.6-29.8-33.1-50.1-43.1c-9.3-4.6-19.1-7.9-28.7-11.8c-1.3-0.5-2.4-1.4-3.4-2
		c-2.1-0.2-4.1-0.3-6-0.6c-3.4-0.6-6.9-1.1-10.2-2.2c-4.6-1.6-10-0.3-14.1-3.5c-0.1-0.1-0.3,0.1-0.5,0.1c-3.2,0-6.4,0.1-9.5,0.1
		c-7.2-0.1-14.4-0.4-21.7-0.6c-0.7,0-1.7,0.2-1.9-0.1c-1.2-1.7-2.2-0.4-3.4-0.2c-3.3,0.5-6.6,0.7-10,0.9c-1.1,0.1-2.2,0.1-3.3,0.1
		c-0.9,0.4-1.8-0.1-2.6,0.1c-2.9,0.7-5.7,1.7-8.5,2.3c-15,3.4-29.3,8.5-41.9,17.6c-3,2.2-6.8,3.6-8.9,6.4c-2.4,3.1-5.7,5.4-7.8,9
		c-4,6.7-9.3,12.6-13.3,19.3c-4.4,7.3-8.4,14.9-11.5,22.7c-4.8,11.8-6,24.5-6,37.2c0.1,10.6,0.8,21.2,1.4,31.7c0.1,2.5,0.6,5,1,7.6
		c0.8,5.4,1.6,10.7,2.6,16.1c0.9,4.7,2,9.3,3,14c-0.1,0.3-0.3,0.7-0.4,1c0,0.3,0,0.7,0,1c0.4,0.3,0.8,0.6,1.1,0.9
		c0,0.4,0,0.8,0.1,1.2c1.3,5.5,2.6,11,3.8,16.4c0,0.3,0,0.7,0,1c-0.1,0.2-0.1,0.3,0,0.5c0.3,0.5,0.7,1,1,1.5c0,0.2,0,0.4,0,0.6
		c0,0.3,0,0.7,0,1c-0.1,0.2-0.1,0.3,0,0.5c0.5,0.5,0.9,1,1.4,1.5c1.4,4.4,2.8,8.8,4.3,13.2c1.1,3.1,2.2,6.2,3.3,9.3
		c0.3,0.4,0.6,0.9,0.9,1.3c0.2,0.6,0.4,1.1,0.6,1.7c-0.2,0.3-0.4,0.7-0.6,1c-0.1,0.2,0,0.3,0,0.5c0.8,0.8,1.6,1.6,2.4,2.5
		c0,0.2,0.1,0.4,0.1,0.6c-0.2,0.3-0.4,0.7-0.6,1c-0.1,0.2,0,0.3,0.1,0.5c0.8,0.8,1.6,1.6,2.4,2.5c0,0.4,0.1,0.7,0.1,1.1
		c0.3,0.4,0.6,0.9,0.9,1.3c0,0.2,0.1,0.5,0.1,0.7c0.1,0.1,0.2,0.2,0.3,0.3c2.6,6.3,5.6,12.4,7.8,18.8c3.1,9.1,5.8,18.3,8.4,27.5
		c0.9,3.1,0.6,6.6,0.9,9.9c0.3,2.7,1,5.5,0.9,8.2c-0.2,8.3-3.6,15.1-10,20.4c-0.2,0.1-0.4,0.2-0.5,0.4c-1.3,0.5-2.6,1.1-3.9,1.6
		c-0.4,0.5-0.7,0.9-1.1,1.4c-4.8,1-9.6,2-14.4,3.1c-2.8,0.6-3.8,2.1-3.4,5c0.2,1.5,1,2.9,1.5,4.4c0.5,0.5,1,1,1.5,1.5
		c0.3,0.3,0.5,0.7,0.8,1c8.4,7.4,18.5,11.4,29.4,12.4c7.8,0.7,15.9,0.8,23.5-2c5.2-1.9,10.6-3.7,15.3-6.4
		c11.4-6.5,20.3-15.6,26.9-27c1.5-2.6,3.4-5,4.8-7.8c3.8-7.9,6.1-16.4,10.7-24c0.1-0.2-0.1-0.5-0.1-0.7c0-0.2,0-0.3,0.1-0.5
		c0.5-1.5,0.9-3,1.4-4.5c-0.1-0.3-0.2-0.7-0.2-1c0.6-2.3,1.3-4.7,1.9-7c0.3-0.3,0.6-0.7,0.9-1c0-1.2,0-2.5,0.1-3.7
		c0.1,0,0.1,0,0.2-0.1c-0.1,0-0.1,0-0.2,0c0.2-1.4,0.4-2.7,0.4-4.1c0-0.6-0.3-1.4-0.8-1.8c-1.7-1.1-3.9-1.5-4.5-3.9
		c0-0.2-0.6-0.4-0.8-0.4c-2.4,0-4.2-0.8-4.9-3.3c-0.1-0.3-0.6-0.7-0.9-0.7c-3.2,0.2-4.9-2.2-6.9-4c-11.7-10.2-20.5-22.4-25.7-37.1
		c-0.2-0.6-1-1.3-1.7-1.4c-11.9-2.9-22.1-8.9-29.6-18.5c-4.4-5.6-8.1-12-7-19.8c0.1-0.4-0.2-0.8-0.2-1.2c-0.1-1.1-0.1-2.3-0.1-3.4
		c0-0.6,0.4-1.2,0.3-1.7c-1.2-4.8,1.3-8.2,4.8-10.5c6.5-4.5,13.2-4.8,20.4-0.7c6.3,3.5,10.8,8.3,14.3,14.4c0.1,0.2,0.4,0.4,0.7,0.8
		c1.3-5.2,2.3-10.2,3.9-15c2.7-8.4,5.6-16.6,8.7-24.9c1-2.5,2.9-4.7,4.4-7c1.9-3,3.6-6.2,5.7-9.1c1.5-2.2,3.6-3.9,5.2-6
		c2.4-3.1,4.5-6.5,6.8-9.7c0.7-1,1.6-1.9,2.4-2.9c0.2,0.1,0.4,0.2,0.7,0.3c-0.1,0.7-0.2,1.5-0.5,2.2c-0.7,2-1.3,4-2.1,6
		c-3.1,7.9-6.2,15.8-9.3,23.6c-0.7,1.7,0.1,2.1,1.5,1.9c5.5-0.6,11-1.1,16.4-1.8c3.2-0.4,6.3-1.2,9.4-1.7c0.2,0,0.3,0,0.5,0
		c0.3,0,0.7,0,1,0c0.3-0.5,0.7-0.9,1-1.4c2.2-0.5,4.3-1,6.5-1.5c0.3,0,0.7-0.1,1-0.1c0.2,0,0.3,0,0.5,0.1c0.3-0.5,0.7-0.9,1-1.4
		c1.6-0.6,3.2-1.3,4.8-2c3.6-1.5,7.1-3.1,10.6-4.7c1.1-0.5,2.3-1,3.4-1.4c0.3-0.5,0.5-1.1,1-1.3c1.8-1.2,3.6-2.2,5.5-3.3
		c2.4-1.3,4.8-2.6,7.2-3.9c0.6-0.7,1.2-1.3,1.8-2c0.6-0.3,1.1-0.6,1.7-0.9c0.6-0.2,1.3-0.4,1.9-0.6c1.5-1.7,3.1-3.3,4.6-5
		c0.2-0.2,0.5-0.3,0.7-0.5c0.2-0.2,0.5-0.5,0.7-0.7c1.7,0.6,2.3-0.1,2-1.7c3-3,6.1-6,9.1-8.9c1.5,0.2,2.2-0.5,2-2
		c2.3-3.7,4.6-7.4,7.2-11.6c4.3,5.6,8.1,10.4,11.7,15.4C278.6,105.2,280.3,108.4,282.2,111.5z M251.5,366.6c-2.4,1-4.7,2.2-7.2,2.9
		c-7,1.8-14.1,2.5-21.4,1.7c-8.1-0.9-15.6-3.4-22.8-7.2c-11.7-6.2-21.4-14.9-30-24.9c-1.6-1.8-4.4-2.5-6.4-1.5c-2,1-2.8,2.9-2.1,5.5
		c0.3,1,0.8,2,1.4,2.8c6,7.1,12.8,13.4,20.3,19c6.1,4.5,12.5,8.4,19.5,11.2c7.1,2.9,14.4,4.9,22.1,5c5.2,0.1,10.5-0.3,15.7-1
		c6.9-0.9,13.4-3.4,19.3-7.2c2.6-1.7,3.5-5,2-7.3c-4.8-7.4-7.3-15.6-8.4-24.2c-0.3-2.4-1.8-3.5-3.6-4.1c-2.1-0.6-4.3,0.1-5.2,2.2
		c-0.6,1.4-0.3,3.3-0.2,4.9C245.1,352.1,247.9,359.2,251.5,366.6z M218.9,254.2c2.3-0.4,5.7-0.7,8.9-1.4c3.7-0.9,7.2-2.3,9.9-5.3
		c2.3-2.5,2.8-7.6-0.7-8.7c-2.2-0.7-4.4-0.2-6.1,1.4c-1.1,1.1-2.3,2.2-3.7,2.6c-8.1,2.8-15.8,1.8-23.1-2.4c-4.1-2.4-7.2-5.9-10-9.6
		c-1.5-2-5-2.6-6.8-1.1c-2,1.6-2.7,4.3-1.1,6.5C193.7,247.5,204.2,253.6,218.9,254.2z M203.7,186.2c-0.2-1.6-0.3-3.2-0.7-4.8
		c-1-4.2-4.4-7.2-8.1-7.4c-5.2-0.3-8,2.5-9.3,6.8c-1.4,4.6-1,9.2,1.3,13.4c2.4,4.4,6.8,7,11.9,3.3
		C202.7,194.8,203.6,190.6,203.7,186.2z M273.9,191.7c-0.3-2.7-0.4-5-0.9-7.3c-0.7-3.4-3.9-6.5-6.8-6.9c-4.4-0.6-7.5,0.9-9.5,4.9
		c-2.7,5.3-2,10.6,0.6,15.5c3.6,6.8,11.1,6.1,14.5,0.1C272.8,195.9,273.2,193.6,273.9,191.7z"/>
	<path class="st1" d="M61,354c-0.5-1.5-1.3-2.9-1.5-4.4c-0.4-2.9,0.7-4.4,3.4-5c4.8-1.1,9.6-2.1,14.4-3.1c0.4-0.5,0.7-0.9,1.1-1.4
		c1.3-0.5,2.6-1.1,3.9-1.6c0.2-0.1,0.4-0.2,0.5-0.4c6.4-5.3,9.8-12.1,10-20.4c0.1-2.7-0.6-5.5-0.9-8.2c-0.3-3.3,0-6.7-0.9-9.9
		c-2.5-9.2-5.3-18.4-8.4-27.5c-2.2-6.4-5.1-12.5-7.8-18.8c-0.1-0.1-0.2-0.3-0.3-0.3c0-0.2-0.1-0.5-0.1-0.7c-0.3-0.4-0.6-0.9-0.9-1.3
		c0-0.4-0.1-0.7-0.1-1.1c0-1.5-0.5-2.7-2.4-2.5c-0.1-0.1-0.1-0.3-0.1-0.5c0.4-0.2,0.8-0.3,1.2-0.5c-0.2-0.2-0.4-0.4-0.7-0.5
		c0-0.2-0.1-0.4-0.1-0.6c0-1.5-0.5-2.7-2.4-2.5c-0.1-0.2-0.1-0.3,0-0.5c0.4-0.2,0.8-0.3,1.2-0.5c-0.2-0.2-0.4-0.4-0.6-0.5
		c-0.2-0.6-0.4-1.1-0.6-1.7c-0.3-0.4-0.6-0.9-0.9-1.3c-1.1-3.1-2.3-6.2-3.3-9.3c-1.5-4.4-2.9-8.8-4.3-13.2c-0.5-0.5-0.9-1-1.4-1.5
		c-0.1-0.2-0.1-0.3,0-0.5c0.2-0.2,0.5-0.3,0.7-0.5c-0.2-0.2-0.5-0.3-0.7-0.5c0-0.2,0-0.4,0-0.6c0.8-1.3,0-1.4-1-1.5
		c-0.1-0.2,0-0.3,0-0.5c0.2-0.2,0.5-0.3,0.7-0.5c-0.2-0.2-0.5-0.3-0.7-0.5c-1.3-5.5-2.6-11-3.8-16.4c-0.1-0.4-0.1-0.8-0.1-1.2
		c-0.4-0.3-0.8-0.6-1.1-0.9c0-0.3,0-0.7,0-1c0.1-0.3,0.3-0.7,0.4-1c-1-4.7-2.1-9.3-3-14c-1-5.3-1.8-10.7-2.6-16.1
		c-0.4-2.5-0.8-5-1-7.6c-0.5-10.6-1.3-21.2-1.4-31.7c-0.1-12.7,1.2-25.3,6-37.2c3.2-7.9,7.2-15.4,11.5-22.7
		c4-6.7,9.3-12.6,13.3-19.3c2.1-3.5,5.4-5.8,7.8-9c2.2-2.8,6-4.2,8.9-6.4c12.6-9.1,26.9-14.2,41.9-17.6c2.9-0.7,5.7-1.6,8.5-2.3
		c0.8-0.2,1.7,0.3,2.6-0.1c1.1,0,2.2,0,3.3-0.1c3.3-0.3,6.7-0.4,10-0.9c1.2-0.2,2.3-1.5,3.4,0.2c0.2,0.3,1.3,0.1,1.9,0.1
		c7.2,0.2,14.4,0.4,21.7,0.6c3.2,0.1,6.4,0,9.5-0.1c0.2,0,0.4-0.2,0.5-0.1c4.2,3.2,9.5,1.9,14.1,3.5c3.3,1.1,6.7,1.6,10.2,2.2
		c1.9,0.4,3.9,0.4,6,0.6c0.9,0.6,2.1,1.4,3.4,2c9.6,3.9,19.4,7.2,28.7,11.8c20.3,10,37.1,24.5,50.1,43.1
		c6.4,9.1,11.6,18.8,14.4,29.6c2,7.8,4.2,15.6,5.8,23.5c1,4.9,1.1,10.1,1.7,15.1c0,0.2-0.1,0.6,0,0.7c2,2.2,0.3,4.6,0.5,6.8
		c0.2,4.1,0.5,8.3,0.5,12.4c0,5-0.4,9.9-0.5,14.9c0,1.6,0.3,3.3,0.5,4.9c-0.2,0.3-0.4,0.6-0.6,1c-0.3,4.3-0.1,8.7-1.2,12.8
		c-0.9,3.2-0.7,6.3-1.2,9.5c-1,7.1-1.6,14.2-2.7,21.3c-0.5,3.6-1.9,7.1-2.6,10.7c-0.2,1,0.7,2.2,1.1,3.3c-0.5,0.5-0.9,1-1.4,1.5
		c-0.9,4.9-2,9.9-2.7,14.8c-0.4,2.5-1.6,4.9-1.6,7.2c-0.1,5-2.9,9.3-2.8,14.4c0,2.5-1.5,5-2.1,7.6c-1,4.6-3,9-2.6,14
		c0.1,1.2-1.4,2.5-1.7,3.9c-1,4.7-1.4,9.5-2.6,14.1c-1.8,6.9-1.6,13.9-1.3,20.9c0.2,4.1,1.2,8.1,1.9,12.2c0.3,0.5,0.6,1,0.8,1.5
		c0.7,2.3,1.4,4.7,2.2,7c0.1,0.2,0.3,0.3,0.4,0.5c0.7,2.2,1.5,4.4,2.2,6.5c0.1,0.2,0.3,0.3,0.4,0.5c0.2,0.7,0.4,1.4,0.6,2
		c0.1,0.2,0.3,0.3,0.4,0.5c0.5,2.1,1.6,4.1,0.4,6.4c-1.3,2.3-2.9,3.1-5.5,2.3c-4.3-1.3-8.6-2.5-12.9-3.8c-0.2-0.1-0.3-0.3-0.5-0.4
		c-6.3-3.4-12.6-6.6-18.8-10.1c-3.1-1.7-5.8-4-8.7-6c-0.2-0.1-0.4-0.3-0.5-0.4c-1-0.7-2-1.4-2.9-2.2c-0.5-0.4-1-0.9-1.5-1.3
		c-2.3-2.2-4.6-4.4-7-6.5c-0.4-0.5-0.8-1-1.2-1.5c-1.2-2.7-2.4-5.4-3.7-8.1c-0.4-0.3-0.7-0.6-1.1-0.9c0.1-4.3,0.3-8.6,0.4-12.9
		c0.3-9.6,2.6-18.8,5-28.1c0.7-2.8,2.3-4.3,4.7-5.5c5.8-3,11-7,15.8-11.6c7.9-7.5,13.6-16.3,18.3-26c0.5-1.1,0.8-2.3,1.2-3.5
		c0.3-0.2,0.5-0.4,0.8-0.6c-0.4-0.1-0.8-0.3-1.2-0.4c0-0.2,0-0.3,0-0.5c0.6-0.3,1.3-0.7,1.9-1c1.6-5.9,3.3-11.7,4.7-17.6
		c0.2-0.9-0.4-1.9-0.7-2.9c0.8-0.2,2.3,0.5,1.7-1.4c-0.2-1.7-0.4-3.4-0.7-5.1c0-0.1-0.1-0.2,0-0.2c2.7-1.6,0.5-4.3,1.4-6.3
		c0.2-0.3,0.4-0.6,0.6-1c0-5.5,0-11,0-16.5c0.5-1.8-0.9-0.7-1.4-1c0.2-0.7,0.3-1.4,0.5-2c0.1-0.5,0.6-1.2,0.4-1.6
		c-1.5-3.1-0.3-6.4-0.6-9.6c-0.4-3.3-1.1-6.6-1.9-9.8c-0.3-1.2-1.2-2.3-1.8-3.5c1.1,0,1.9-0.3,0.9-1.5c-0.5-2.2-1-4.3-1.5-6.5
		c-0.1-0.2-0.2-0.3-0.3-0.5c-0.8-3.1-1.3-6.4-2.3-9.4c-2.3-6.6-4.7-13.1-7.4-19.5c-1.6-3.7-3.9-7.2-5.9-10.8c-0.3-0.1-0.7-0.3-1-0.4
		c0.1-0.2,0.1-0.3,0.2-0.5c1.4-1,0.3-1.5-0.5-2c-1.9-3.1-3.6-6.3-5.7-9.2c-3.6-5-7.5-9.8-11.7-15.4c-2.6,4.2-4.9,7.9-7.2,11.6
		c-0.7,0.7-1.3,1.4-2,2c-3,3-6.1,6-9.1,8.9c-0.7,0.6-1.3,1.2-2,1.7c-0.2,0.2-0.5,0.5-0.7,0.7c-0.2,0.2-0.5,0.3-0.7,0.5
		c-1.5,1.7-3.1,3.3-4.6,5c-1.1-1.2-1.6-1-1.9,0.6c-0.6,0.3-1.1,0.6-1.7,0.9c-0.6,0.7-1.2,1.3-1.8,2c-2.4,1.3-4.8,2.6-7.2,3.9
		c-1.9,1-3.7,2.1-5.5,3.3c-0.4,0.3-0.6,0.9-1,1.3c-1.1,0.5-2.3,1-3.4,1.4c-3.5,1.6-7.1,3.1-10.6,4.7c-1.6,0.7-3.2,1.3-4.8,2
		c-0.3,0.5-0.7,0.9-1,1.4c-0.2,0-0.3,0-0.5-0.1c-0.2-0.2-0.4-0.4-0.6-0.6c-0.1,0.3-0.3,0.5-0.4,0.8c-2.2,0.5-4.3,1-6.5,1.5
		c-0.3,0.5-0.7,0.9-1,1.4c-0.3,0-0.7,0-1,0c-0.1-0.2-0.2-0.4-0.2-0.6c-0.1,0.2-0.2,0.4-0.2,0.6c-3.1,0.6-6.3,1.3-9.4,1.7
		c-5.5,0.7-11,1.3-16.4,1.8c-1.4,0.1-2.2-0.2-1.5-1.9c3.2-7.9,6.3-15.8,9.3-23.6c0.8-2,1.4-4,2.1-6c0.2-0.7,0.3-1.5,0.5-2.2
		c-0.2-0.1-0.4-0.2-0.7-0.3c-0.8,1-1.7,1.9-2.4,2.9c-2.3,3.2-4.4,6.5-6.8,9.7c-1.6,2.1-3.7,3.8-5.2,6c-2.1,2.9-3.8,6.1-5.7,9.1
		c-1.5,2.3-3.4,4.5-4.4,7c-3.1,8.2-6,16.5-8.7,24.9c-1.6,4.8-2.6,9.9-3.9,15c-0.3-0.3-0.6-0.5-0.7-0.8c-3.5-6.1-8-10.8-14.3-14.4
		c-7.3-4.1-13.9-3.8-20.4,0.7c-3.4,2.4-5.9,5.8-4.8,10.5c0.1,0.5-0.3,1.1-0.3,1.7c0,1.1,0,2.3,0.1,3.4c0,0.4,0.3,0.8,0.2,1.2
		c-1,7.8,2.6,14.2,7,19.8c7.5,9.6,17.7,15.6,29.6,18.5c0.7,0.2,1.5,0.8,1.7,1.4c5.2,14.7,14.1,26.9,25.7,37.1c2,1.7,3.7,4.2,6.9,4
		c0.3,0,0.8,0.4,0.9,0.7c0.7,2.5,2.5,3.3,4.9,3.3c0.3,0,0.8,0.2,0.8,0.4c0.6,2.4,2.8,2.8,4.5,3.9c0.5,0.3,0.8,1.2,0.8,1.8
		c0,1.4-0.3,2.7-0.4,4.1c0,0,0,0,0,0c0,1.2,0,2.5-0.1,3.7c-0.3,0.3-0.6,0.7-0.9,1c-0.6,2.3-1.3,4.7-1.9,7c0.1,0.3,0.2,0.7,0.2,1
		c-0.5,1.5-0.9,3-1.4,4.5c-0.2,0.1-0.4,0.1-0.6,0.2c0.2,0.1,0.3,0.2,0.5,0.3c0,0.2,0.2,0.6,0.1,0.7c-4.6,7.5-6.9,16.1-10.7,24
		c-1.4,2.8-3.2,5.2-4.8,7.8c-6.6,11.4-15.5,20.5-26.9,27c-4.8,2.7-10.1,4.5-15.3,6.4c-7.6,2.8-15.7,2.7-23.5,2c-11-1-21-5-29.4-12.4
		c-0.3-0.3-0.5-0.6-0.8-1C62,355,61.5,354.5,61,354z"/>
	<path class="st2" d="M251.5,366.6c-3.6-7.3-6.4-14.5-7-22.4c-0.1-1.6-0.4-3.5,0.2-4.9c0.9-2.1,3.1-2.8,5.2-2.2
		c1.9,0.5,3.3,1.6,3.6,4.1c1.1,8.6,3.6,16.8,8.4,24.2c1.5,2.3,0.7,5.6-2,7.3c-5.9,3.8-12.4,6.3-19.3,7.2c-5.2,0.7-10.5,1.1-15.7,1
		c-7.7-0.1-15-2.1-22.1-5c-7-2.8-13.4-6.7-19.5-11.2c-7.5-5.6-14.3-11.9-20.3-19c-0.7-0.8-1.2-1.8-1.4-2.8c-0.7-2.5,0.1-4.4,2.1-5.5
		c2-1,4.8-0.3,6.4,1.5c8.6,10,18.2,18.7,30,24.9c7.2,3.8,14.7,6.3,22.8,7.2c7.3,0.8,14.4,0.1,21.4-1.7
		C246.7,368.8,249,367.6,251.5,366.6z"/>
	<path class="st2" d="M218.9,254.2c-14.7-0.6-25.2-6.7-32.7-18c-1.5-2.3-0.9-4.9,1.1-6.5c1.8-1.4,5.2-0.8,6.8,1.1
		c2.9,3.7,5.9,7.2,10,9.6c7.4,4.3,15.1,5.3,23.1,2.4c1.4-0.5,2.6-1.6,3.7-2.6c1.7-1.6,4-2.1,6.1-1.4c3.5,1.2,3,6.2,0.7,8.7
		c-2.7,3-6.2,4.4-9.9,5.3C224.6,253.5,221.3,253.8,218.9,254.2z"/>
	<path class="st2" d="M203.7,186.2c-0.1,4.4-1,8.6-4.8,11.3c-5.2,3.7-9.6,1.1-11.9-3.3c-2.3-4.2-2.6-8.8-1.3-13.4
		c1.3-4.3,4-7.1,9.3-6.8c3.6,0.2,7.1,3.2,8.1,7.4C203.3,183,203.4,184.6,203.7,186.2z"/>
	<path class="st2" d="M273.9,191.7c-0.6,1.9-1,4.3-2.1,6.3c-3.4,6.1-10.9,6.8-14.5-0.1c-2.6-4.9-3.3-10.2-0.6-15.5
		c2-4,5.1-5.5,9.5-4.9c2.9,0.4,6.1,3.5,6.8,6.9C273.4,186.6,273.5,188.9,273.9,191.7z"/>
	<path class="st3" d="M216,130.9c1.1-0.5,2.3-1,3.4-1.4C218.2,129.9,217.1,130.4,216,130.9z"/>
	<path class="st4" d="M71.1,247.5c1.9-0.2,2.3,0.9,2.4,2.5C72.7,249.1,71.9,248.3,71.1,247.5z"/>
	<path class="st4" d="M69.1,243c1.8-0.2,2.3,0.9,2.4,2.5C70.7,244.6,69.9,243.8,69.1,243z"/>
	<path class="st5" d="M255.5,100.6c0.7-0.7,1.3-1.4,2-2C257.7,100,257.1,100.7,255.5,100.6z"/>
	<path class="st6" d="M244.4,111.2c0.7-0.6,1.3-1.2,2-1.7C246.7,111.2,246.2,111.9,244.4,111.2z"/>
	<path class="st4" d="M233,120.9c0.6-0.7,1.2-1.3,1.8-2C234.2,119.6,233.6,120.2,233,120.9z"/>
	<path class="st5" d="M282.2,111.5c0.8,0.5,1.8,1,0.5,2C282.5,112.8,282.4,112.2,282.2,111.5z"/>
	<path class="st4" d="M236.5,118c0.2-1.5,0.8-1.8,1.9-0.6C237.8,117.6,237.1,117.8,236.5,118z"/>
	<path class="st4" d="M58.1,211c1,0,1.8,0.1,1,1.5C58.8,212,58.4,211.5,58.1,211z"/>
	<path class="st5" d="M61,354c0.5,0.5,1,1,1.5,1.5C62,355,61.5,354.5,61,354z"/>
	<path class="st7" d="M255.8,340c0.4,0.5,0.8,1,1.2,1.5C256.6,341,256.2,340.5,255.8,340z"/>
	<path class="st8" d="M303.7,219.1c0.6,1.9-0.9,1.2-1.7,1.4C302.6,220,303.2,219.6,303.7,219.1z"/>
	<path class="st6" d="M323.5,236c0.5-0.5,0.9-1,1.4-1.5C324.4,235,324,235.5,323.5,236z"/>
	<path class="st4" d="M298,241c-0.6,0.3-1.3,0.7-1.9,1C296.8,241.7,297.4,241.3,298,241z"/>
	<path class="st4" d="M264,348c0.5,0.4,1,0.9,1.5,1.3C265,348.9,264.5,348.5,264,348z"/>
	<path class="st9" d="M301,161c1,1.2,0.2,1.5-0.9,1.5C300.4,162,300.7,161.5,301,161z"/>
	<path class="st6" d="M53.1,191c0.4,0.3,0.8,0.6,1.1,0.9C53.8,191.6,53.5,191.3,53.1,191z"/>
	<path class="st5" d="M177,288c0.3-0.3,0.6-0.7,0.9-1C177.6,287.3,177.3,287.7,177,288z"/>
	<path class="st10" d="M303.6,189c0.5,0.3,2-0.8,1.4,1C304.5,189.7,304.1,189.3,303.6,189z"/>
	<path class="st4" d="M73.7,251c0.3,0.4,0.6,0.9,0.9,1.3C74.3,251.9,74,251.4,73.7,251z"/>
	<path class="st4" d="M59.1,214.5c0.5,0.5,0.9,1,1.4,1.5C60,215.5,59.6,215,59.1,214.5z"/>
	<path class="st5" d="M199.5,138.9c0.3-0.5,0.7-0.9,1-1.4C200.2,138,199.8,138.4,199.5,138.9z"/>
	<path class="st4" d="M68.2,238.5c0.3,0.4,0.6,0.9,0.9,1.3C68.8,239.3,68.5,238.9,68.2,238.5z"/>
	<path class="st4" d="M296.1,242.5c0.4,0.1,0.8,0.3,1.2,0.4c-0.3,0.2-0.5,0.4-0.8,0.6C296.3,243.2,296.2,242.8,296.1,242.5z"/>
	<path class="st5" d="M198,139c0.1-0.3,0.3-0.5,0.4-0.8c0.2,0.2,0.4,0.4,0.6,0.6C198.7,138.9,198.3,138.9,198,139z"/>
	<path class="st4" d="M69.7,241.5c0.2,0.2,0.4,0.4,0.6,0.5c-0.4,0.2-0.8,0.3-1.2,0.5C69.3,242.2,69.5,241.8,69.7,241.5z"/>
	<path class="st11" d="M78.5,340.1c-0.4,0.5-0.7,0.9-1.1,1.4C77.8,341,78.1,340.5,78.5,340.1z"/>
	<path class="st4" d="M71.6,246c0.2,0.2,0.4,0.4,0.7,0.5c-0.4,0.2-0.8,0.3-1.2,0.5C71.3,246.7,71.5,246.3,71.6,246z"/>
	<path class="st5" d="M190.5,141.9c0.3-0.5,0.7-0.9,1-1.4C191.2,141,190.8,141.4,190.5,141.9z"/>
	<path class="st12" d="M308.8,346.5c-0.3-0.5-0.6-1-0.8-1.5C308.3,345.5,308.6,346,308.8,346.5z"/>
	<path class="st7" d="M251.1,331c0.4,0.3,0.7,0.6,1.1,0.9C251.8,331.6,251.4,331.3,251.1,331z"/>
	<path class="st8" d="M331.5,177c0.2-0.3,0.4-0.6,0.6-1C331.9,176.3,331.7,176.7,331.5,177z"/>
	<path class="st4" d="M59.1,213c0.2,0.2,0.5,0.3,0.7,0.5c-0.2,0.2-0.5,0.3-0.7,0.5C59.1,213.7,59.1,213.3,59.1,213z"/>
	<path class="st12" d="M53.5,189c-0.1,0.3-0.3,0.7-0.4,1C53.3,189.7,53.4,189.3,53.5,189z"/>
	<path class="st4" d="M58.1,209.5c0.2,0.2,0.5,0.3,0.7,0.5c-0.2,0.2-0.5,0.3-0.7,0.5C58.1,210.2,58.1,209.8,58.1,209.5z"/>
	<path class="st12" d="M305,206.5c-0.2,0.3-0.4,0.6-0.6,1C304.6,207.2,304.8,206.8,305,206.5z"/>
	<path class="st5" d="M175.3,296c-0.1-0.3-0.2-0.7-0.2-1C175.1,295.3,175.2,295.7,175.3,296z"/>
	<path class="st5" d="M189,141.9c0.1-0.2,0.2-0.4,0.2-0.6c0.1,0.2,0.2,0.4,0.2,0.6C189.3,141.9,189.2,141.9,189,141.9z"/>
	<path class="st5" d="M282.5,114c0.3,0.1,0.7,0.3,1,0.4C283.1,114.3,282.8,114.1,282.5,114z"/>
	<path class="st7" d="M173.8,301c-0.2-0.1-0.3-0.2-0.5-0.3c0.2-0.1,0.4-0.1,0.6-0.2C173.9,300.7,173.8,300.8,173.8,301z"/>
	<path class="st6" d="M243,112.4c0.2-0.2,0.5-0.3,0.7-0.5C243.5,112.1,243.2,112.3,243,112.4z"/>
	<path class="st4" d="M74.7,253c0.1,0.1,0.2,0.2,0.3,0.3C74.9,253.3,74.8,253.1,74.7,253z"/>
	<path class="st11" d="M83,338.1c-0.2,0.1-0.4,0.2-0.5,0.4C82.6,338.4,82.8,338.2,83,338.1z"/>
	<path class="st8" d="M178,283.2C178,283.2,178,283.2,178,283.2c0.1,0,0.1-0.1,0.2-0.1C178.1,283.2,178,283.2,178,283.2z"/>
	<path class="st12" d="M268.4,351.5c0.2,0.1,0.4,0.3,0.5,0.4C268.8,351.8,268.6,351.6,268.4,351.5z"/>
	<path class="st10" d="M311.4,354c-0.1-0.2-0.3-0.3-0.4-0.5C311.1,353.7,311.3,353.8,311.4,354z"/>
	<path class="st8" d="M299.2,154c0.1,0.2,0.2,0.3,0.3,0.5C299.4,154.4,299.3,154.2,299.2,154z"/>
	<path class="st13" d="M314,361c-0.1-0.2-0.3-0.3-0.4-0.5C313.7,360.7,313.9,360.8,314,361z"/>
	<path class="st13" d="M315,363.5c-0.1-0.2-0.3-0.3-0.4-0.5C314.7,363.2,314.9,363.3,315,363.5z"/>
	<path class="st11" d="M296.5,368c0.2,0.1,0.3,0.3,0.5,0.4C296.8,368.3,296.7,368.1,296.5,368z"/>
</g>
</svg>
